<svg width="227" height="21" viewBox="0 0 227 21" fill="none" xmlns="http://www.w3.org/2000/svg">
<path d="M6.9833 10.4076C3.18437 15.7106 0.0527423 20.1506 0.00282554 20.2741C-0.0470913 20.3976 0.570303 20.4961 1.38474 20.4961H2.86517L9.10607 11.8381L15.322 3.18021L18.8004 3.27873C22.1055 3.35229 22.3524 3.37725 23.5859 4.0682C25.7074 5.25176 26.8173 7.12626 26.8173 9.51964C26.8423 11.8381 25.4604 13.9347 23.2654 14.9711C22.1554 15.4886 21.6864 15.5635 18.8004 15.5635H15.569L14.8045 16.6486C14.3605 17.241 14.015 17.8085 14.015 17.882C14.015 17.9556 15.8895 18.0305 18.208 18.0305C21.8335 18.0305 22.5744 17.9569 23.758 17.5129C25.5589 16.8469 27.6055 14.9474 28.4935 13.1465C29.1096 11.913 29.3184 11.49 29.3184 9.40667C29.3184 7.62149 29.1345 6.9555 28.3464 5.50003C27.3349 3.65048 26.0279 2.41701 24.1534 1.52901C22.8463 0.936579 22.5258 0.887976 18.3328 0.8131L13.8928 0.763184L6.98593 10.4076H6.9833Z" fill="#D8FB01"/>
<path d="M11.3497 12.9482C8.48872 16.9441 6.1203 20.2741 6.1203 20.3477C6.1203 20.4212 6.76134 20.4961 7.57577 20.4961H9.03123L13.4213 14.3787L17.8363 8.28619L19.2668 8.21263C20.9443 8.11411 21.9058 8.58306 21.9058 9.47106C21.9058 10.3091 21.4369 10.631 20.1798 10.631C19.1433 10.6559 19.0199 10.7045 18.2803 11.8145L17.4659 12.9744L19.5873 13.048C21.9308 13.1215 22.7689 12.826 23.7068 11.5676C24.4227 10.6297 24.5212 8.75514 23.9288 7.67011C23.1393 6.2396 21.7587 5.69708 18.9713 5.69708H16.6028L11.3484 12.9495L11.3497 12.9482Z" fill="#D8FB01"/>
<path d="M36.6008 17.3336V4.57184H42.1242C43.2669 4.57184 44.2515 4.75666 45.0779 5.12809C45.9042 5.49951 46.5422 6.03088 46.9919 6.72398C47.4415 7.41707 47.6672 8.24344 47.6672 9.20311C47.6672 10.1628 47.4415 10.9714 46.9919 11.6645C46.5422 12.3576 45.9042 12.8889 45.0779 13.2604C44.2515 13.6318 43.2669 13.8166 42.1242 13.8166H38.2411L39.5545 12.4855V17.3354H36.6008V17.3336ZM39.5545 12.8125L38.2411 11.4086H41.9607C42.8724 11.4086 43.5531 11.2148 44.0027 10.8257C44.4523 10.4365 44.678 9.8962 44.678 9.20311C44.678 8.51002 44.4523 7.95199 44.0027 7.56279C43.5531 7.1736 42.8724 6.97989 41.9607 6.97989H38.2411L39.5545 5.57593V12.8143V12.8125Z" fill="#D8FB01"/>
<path d="M49.7642 17.3336V4.57184H55.2876C56.4303 4.57184 57.4148 4.75666 58.2412 5.12809C59.0676 5.49951 59.7056 6.03088 60.1552 6.72398C60.6048 7.41707 60.8305 8.24344 60.8305 9.20311C60.8305 10.1628 60.6048 10.9696 60.1552 11.6556C59.7056 12.3416 59.0676 12.8676 58.2412 13.2319C57.4148 13.5962 56.4303 13.7793 55.2876 13.7793H51.4045L52.7178 12.4855V17.3354H49.7642V17.3336ZM52.7178 12.8125L51.4045 11.4263H55.1241C56.0357 11.4263 56.7164 11.2291 57.166 10.8345C57.6156 10.44 57.8413 9.8962 57.8413 9.20311C57.8413 8.51002 57.6156 7.95199 57.166 7.56279C56.7164 7.1736 56.0357 6.97989 55.1241 6.97989H51.4045L52.7178 5.57593V12.8143V12.8125ZM57.8769 17.3336L54.6869 12.7023H57.8413L61.0687 17.3336H57.8787H57.8769Z" fill="#D8FB01"/>
<path d="M69.361 17.554C68.3516 17.554 67.4186 17.3905 66.562 17.0617C65.7054 16.7329 64.9643 16.2727 64.337 15.6755C63.7114 15.0802 63.2245 14.3818 62.8779 13.5785C62.5314 12.7752 62.359 11.9009 62.359 10.9536C62.359 10.0064 62.5314 9.13027 62.8779 8.32877C63.2245 7.52727 63.7132 6.82707 64.3459 6.23172C64.9785 5.63638 65.7196 5.17432 66.5709 4.84554C67.4221 4.51677 68.3445 4.35327 69.3415 4.35327C70.3384 4.35327 71.2768 4.51677 72.1209 4.84554C72.9651 5.17432 73.7008 5.63638 74.3264 6.23172C74.9519 6.82707 75.4407 7.52372 75.7943 8.31988C76.1462 9.11605 76.3221 9.99397 76.3221 10.9536C76.3221 11.9133 76.1462 12.7805 75.7943 13.5874C75.4424 14.396 74.9519 15.0944 74.3264 15.6844C73.7008 16.2744 72.9651 16.7329 72.1209 17.0617C71.2768 17.3905 70.3562 17.554 69.3592 17.554H69.361ZM69.3432 15.0375C69.9137 15.0375 70.4397 14.9398 70.9196 14.7461C71.3994 14.5524 71.8224 14.2716 72.1867 13.9073C72.551 13.5429 72.8336 13.1111 73.0344 12.6135C73.2352 12.1159 73.3347 11.5632 73.3347 10.9554C73.3347 10.3476 73.2352 9.79492 73.0344 9.29732C72.8336 8.79972 72.5546 8.36787 72.1956 8.00355C71.8366 7.63923 71.4136 7.36022 70.9285 7.16473C70.4415 6.97102 69.9137 6.87328 69.3432 6.87328C68.7728 6.87328 68.2467 6.97102 67.7669 7.16473C67.2871 7.35844 66.8641 7.63923 66.4998 8.00355C66.1355 8.36787 65.8529 8.79972 65.6521 9.29732C65.4513 9.79492 65.3517 10.3494 65.3517 10.9554C65.3517 11.5614 65.4513 12.1017 65.6521 12.6046C65.8529 13.1075 66.1319 13.5429 66.4909 13.9073C66.8499 14.2716 67.2711 14.5524 67.758 14.7461C68.2432 14.9398 68.7728 15.0375 69.3432 15.0375Z" fill="#D8FB01"/>
<path d="M78.5488 17.3336V4.57184H84.0722C85.2149 4.57184 86.1995 4.75666 87.0259 5.12809C87.8522 5.49951 88.4902 6.03088 88.9399 6.72398C89.3895 7.41707 89.6152 8.24344 89.6152 9.20311C89.6152 10.1628 89.3895 10.9714 88.9399 11.6645C88.4902 12.3576 87.8522 12.8889 87.0259 13.2604C86.1995 13.6318 85.2149 13.8166 84.0722 13.8166H80.1891L81.5025 12.4855V17.3354H78.5488V17.3336ZM81.5025 12.8125L80.1891 11.4086H83.9087C84.8204 11.4086 85.5011 11.2148 85.9507 10.8257C86.4003 10.4365 86.626 9.8962 86.626 9.20311C86.626 8.51002 86.4003 7.95199 85.9507 7.56279C85.5011 7.1736 84.8204 6.97989 83.9087 6.97989H80.1891L81.5025 5.57593V12.8143V12.8125Z" fill="white"/>
<path d="M94.6463 14.9647H101.591V17.3354H91.7104V4.57364H101.355V6.94437H94.6463V14.9664V14.9647ZM94.4277 9.71495H100.571V12.0128H94.4277V9.71495Z" fill="white"/>
<path d="M103.944 17.3336V4.57184H109.468C110.61 4.57184 111.595 4.75666 112.421 5.12809C113.248 5.49951 113.886 6.03088 114.335 6.72398C114.785 7.41707 115.011 8.24344 115.011 9.20311C115.011 10.1628 114.785 10.9696 114.335 11.6556C113.886 12.3416 113.248 12.8676 112.421 13.2319C111.595 13.5962 110.61 13.7793 109.468 13.7793H105.585L106.898 12.4855V17.3354H103.944V17.3336ZM106.898 12.8125L105.585 11.4263H109.304C110.216 11.4263 110.897 11.2291 111.346 10.8345C111.796 10.44 112.022 9.8962 112.022 9.20311C112.022 8.51002 111.796 7.95199 111.346 7.56279C110.897 7.1736 110.216 6.97989 109.304 6.97989H105.585L106.898 5.57593V12.8143V12.8125ZM112.057 17.3336L108.867 12.7023H112.022L115.249 17.3336H112.059H112.057Z" fill="white"/>
<path d="M120.298 17.3336H117.344V4.57184H126.989V6.94256H120.298V17.3336ZM120.079 10.3138H126.205V12.6846H120.079V10.3138Z" fill="white"/>
<path d="M135.064 17.554C134.055 17.554 133.122 17.3905 132.265 17.0617C131.409 16.7329 130.667 16.2727 130.04 15.6755C129.415 15.0802 128.928 14.3818 128.581 13.5785C128.235 12.7752 128.062 11.9009 128.062 10.9536C128.062 10.0064 128.235 9.13027 128.581 8.32877C128.928 7.52727 129.416 6.82707 130.049 6.23172C130.68 5.63638 131.423 5.17432 132.274 4.84554C133.125 4.51677 134.048 4.35327 135.045 4.35327C136.042 4.35327 136.98 4.51677 137.824 4.84554C138.668 5.17432 139.404 5.63638 140.03 6.23172C140.655 6.82707 141.144 7.52372 141.497 8.31988C141.849 9.11605 142.027 9.99397 142.027 10.9536C142.027 11.9133 141.851 12.7805 141.497 13.5874C141.146 14.396 140.655 15.0944 140.03 15.6844C139.404 16.2744 138.668 16.7329 137.824 17.0617C136.98 17.3905 136.059 17.554 135.062 17.554H135.064ZM135.046 15.0375C135.617 15.0375 136.143 14.9398 136.624 14.7461C137.104 14.5524 137.527 14.2716 137.892 13.9073C138.256 13.5429 138.538 13.1111 138.739 12.6135C138.94 12.1159 139.04 11.5632 139.04 10.9554C139.04 10.3476 138.94 9.79492 138.739 9.29732C138.538 8.79972 138.259 8.36787 137.9 8.00355C137.541 7.63923 137.12 7.36022 136.633 7.16473C136.146 6.97102 135.619 6.87328 135.046 6.87328C134.474 6.87328 133.95 6.97102 133.47 7.16473C132.99 7.35844 132.567 7.63923 132.203 8.00355C131.839 8.36787 131.556 8.79972 131.355 9.29732C131.154 9.79492 131.055 10.3494 131.055 10.9554C131.055 11.5614 131.154 12.1017 131.355 12.6046C131.556 13.1093 131.835 13.5429 132.194 13.9073C132.553 14.2716 132.974 14.5524 133.461 14.7461C133.946 14.9398 134.476 15.0375 135.046 15.0375Z" fill="white"/>
<path d="M144.252 17.3336V4.57184H149.775C150.918 4.57184 151.903 4.75666 152.729 5.12809C153.555 5.49951 154.193 6.03088 154.643 6.72398C155.093 7.41707 155.317 8.24344 155.317 9.20311C155.317 10.1628 155.091 10.9696 154.643 11.6556C154.193 12.3416 153.555 12.8676 152.729 13.2319C151.903 13.5962 150.918 13.7793 149.775 13.7793H145.892L147.206 12.4855V17.3354H144.252V17.3336ZM147.206 12.8125L145.892 11.4263H149.612C150.524 11.4263 151.204 11.2291 151.654 10.8345C152.104 10.44 152.329 9.8962 152.329 9.20311C152.329 8.51002 152.104 7.95199 151.654 7.56279C151.204 7.1736 150.524 6.97989 149.612 6.97989H145.892L147.206 5.57593V12.8143V12.8125ZM152.365 17.3336L149.175 12.7023H152.329L155.557 17.3336H152.367H152.365Z" fill="white"/>
<path d="M157.652 17.3336V4.57184H160.095L165.528 13.5785H164.234L169.577 4.57184H172.001L172.038 17.3336H169.267L169.25 8.81924H169.76L165.494 15.9847H164.163L159.806 8.81924H160.426V17.3336H157.655H157.652Z" fill="white"/>
<path d="M173.385 17.3336L179.074 4.57184H181.99L187.696 17.3336H184.597L179.93 6.06643H181.098L176.413 17.3336H173.387H173.385ZM176.228 14.5986L177.012 12.3558H183.575L184.377 14.5986H176.228Z" fill="white"/>
<path d="M189.026 17.3336V4.57184H191.469L198.999 13.7597H197.814V4.57184H200.73V17.3336H198.306L190.758 8.1457H191.944V17.3336H189.028H189.026Z" fill="white"/>
<path d="M209.865 17.554C208.88 17.554 207.965 17.3923 207.121 17.0706C206.277 16.7489 205.544 16.2904 204.924 15.6933C204.304 15.098 203.821 14.3995 203.474 13.5963C203.127 12.7948 202.955 11.9133 202.955 10.9519C202.955 9.99042 203.127 9.11072 203.474 8.30923C203.821 7.50773 204.306 6.80753 204.933 6.21218C205.559 5.61683 206.291 5.15833 207.13 4.83489C207.968 4.51322 208.885 4.3515 209.882 4.3515C210.988 4.3515 211.988 4.54343 212.882 4.92552C213.776 5.30761 214.526 5.87097 215.134 6.61204L213.238 8.36254C212.801 7.86494 212.314 7.48996 211.779 7.24116C211.244 6.99236 210.661 6.86795 210.028 6.86795C209.433 6.86795 208.885 6.9657 208.388 7.15941C207.89 7.35312 207.458 7.63391 207.094 7.99822C206.73 8.36254 206.447 8.79439 206.246 9.29199C206.046 9.7896 205.946 10.3441 205.946 10.9501C205.946 11.5561 206.046 12.1106 206.246 12.6082C206.447 13.1058 206.73 13.5376 207.094 13.9019C207.458 14.2663 207.89 14.547 208.388 14.7408C208.885 14.9345 209.433 15.0322 210.028 15.0322C210.661 15.0322 211.244 14.9078 211.779 14.659C212.314 14.4102 212.799 14.0299 213.238 13.5199L215.134 15.2704C214.526 16.0114 213.776 16.5766 212.882 16.9658C211.988 17.355 210.982 17.5487 209.865 17.5487V17.554Z" fill="white"/>
<path d="M220.055 14.9647H227V17.3354H217.119V4.57364H226.764V6.94437H220.055V14.9664V14.9647ZM219.836 9.71495H225.98V12.0128H219.836V9.71495Z" fill="white"/>
</svg>
